# xmcd
#
# Track frame offsets:
#      150
#      112002
#      124327
#      135440
#      148112
#      157057
#      177075
#      203795
#      227207
#      238470
#      247627
#      281420
#      295552
#      307140
# 
# Disc length: 4259 seconds
#
# Revision: 3
# Processed by: cddbd v1.4PL0 Copyright (c) Steve Scherf et al.
#
# Submitted via: FreeRIP 1.21
#
DISCID=d110a10e
DTITLE=Various Artist - Let's Get It On - SOUL GREATS
DYEAR=1900
DGENRE=blues
TTITLE0=It's a man's, man's, man's world (James Brown)
TTITLE1=(Sittin' on the) Dock of the Bay (Sam and Dave)
TTITLE2=Duke of Earl (Gene Chandler)
TTITLE3=All in the run of a day (Barry White)
TTITLE4=Ain't no sunshine (Al Jarreau)
TTITLE5=If you don't know me by now [live] (Harold Melvin and the Bluenotes)
TTITLE6=Na na hey hey kiss him goodbye (Donna Summer)
TTITLE7=Can't take my eyes off you (Gloria Gaynor)
TTITLE8=Twist and Shout (The Isley Brothers)
TTITLE9=Every beat of my heart (Gladys Knight and the Pips)
TTITLE10=Summertime (The Ohio Players)
TTITLE11=It's too late (Wilson Pickett)
TTITLE12=Let's get it on (Ike and Tina Turner)
TTITLE13=Listen (The Impressions)
EXTD=
EXTT0=
EXTT1=
EXTT2=
EXTT3=
EXTT4=
EXTT5=
EXTT6=
EXTT7=
EXTT8=
EXTT9=
EXTT10=
EXTT11=
EXTT12=
EXTT13=
PLAYORDER=
